# xmcd
#
# Track frame offsets: 
#        150
#        11359
#        26650
#        37042
#        47569
#        57075
#        77083
#        85548
#        96739
#        105639
#        114801
#        124693
#        135283
#        148317
#        163549
#        183449
#        195943
#        207136
#        223412
#        232333
#        243997
#
# Disc length: 3403 seconds
#
# Revision: 1
# Processed by: cddbd v1.5.2PL0 Copyright (c) Steve Scherf et al.
# Submitted via: ExactAudioCopy v0.99pb5
#
DISCID=1e0d4915
DTITLE=ИВАЩЕНКО Алексей - Две капли на стакан воды
DYEAR=2001
DGENRE=бард
TTITLE0=Вальс возвращенья
TTITLE1=Земляничная поляна
TTITLE2=Дождь над Иссык-Кулем
TTITLE3=Иссык-Кульская тоска
TTITLE4=Сквозь тьму веков...
TTITLE5=Колыбельная для чёрного котёнка
TTITLE6=Ночь
TTITLE7=Как быстро привыкает кот к уюту...
TTITLE8=Маленький экипаж
TTITLE9=У магазина ''Электроника''
TTITLE10=Утренняя зарядка на берегу Мексиканского залива, штат Флорида
TTITLE11=Две капли на стакан воды
TTITLE12=Мы жжём сердца охотой...
TTITLE13=Боцман
TTITLE14=Песня председателя
TTITLE15=Песня Мери
TTITLE16=Мне ничего не жаль
TTITLE17=Родословная
TTITLE18=Ещё стрелу из колчана...
TTITLE19=Пора, мой друг, пора...
TTITLE20=Я милую узнаю по походке
EXTD=
EXTT0=
EXTT1=
EXTT2=
EXTT3=
EXTT4=
EXTT5=
EXTT6=
EXTT7=
EXTT8=
EXTT9=
EXTT10=
EXTT11=
EXTT12=
EXTT13=
EXTT14=
EXTT15=
EXTT16=
EXTT17=
EXTT18=
EXTT19=
EXTT20=
PLAYORDER=
